<?xml version="1.0" encoding="UTF-8" standalone="no"?>
<!-- Created with Inkscape (http://www.inkscape.org/) -->

<svg
   width="210mm"
   height="297mm"
   viewBox="0 0 210 297"
   version="1.1"
   id="svg5"
   inkscape:version="1.1 (c68e22c387, 2021-05-23)"
   sodipodi:docname="logo.svg"
   xmlns:inkscape="http://www.inkscape.org/namespaces/inkscape"
   xmlns:sodipodi="http://sodipodi.sourceforge.net/DTD/sodipodi-0.dtd"
   xmlns="http://www.w3.org/2000/svg"
   xmlns:svg="http://www.w3.org/2000/svg">
  <sodipodi:namedview
     id="namedview7"
     pagecolor="#ffffff"
     bordercolor="#999999"
     borderopacity="1"
     inkscape:pageshadow="0"
     inkscape:pageopacity="0"
     inkscape:pagecheckerboard="0"
     inkscape:document-units="mm"
     showgrid="false"
     inkscape:zoom="0.69664703"
     inkscape:cx="415.56196"
     inkscape:cy="565.56618"
     inkscape:window-width="1920"
     inkscape:window-height="986"
     inkscape:window-x="-11"
     inkscape:window-y="-11"
     inkscape:window-maximized="1"
     inkscape:current-layer="layer1" />
  <defs
     id="defs2" />
  <g
     inkscape:label="Layer 1"
     inkscape:groupmode="layer"
     id="layer1">
    <path
       style="fill:#2d52a1;stroke:none;stroke-width:0.141033"
       d="m 111.61116,60.056385 c -5.33769,0.764352 -10.91358,1.300122 -16.077795,2.90491 -5.86291,1.821895 -11.15222,4.913742 -16.50091,7.851179 -5.398897,2.965036 -10.813871,5.688795 -15.654712,9.555644 -10.90046,8.707266 -19.719135,20.975892 -25.184738,33.784692 -2.153451,5.04701 -3.799734,10.49006 -4.533521,15.93677 -0.739721,5.49113 -0.659054,11.01428 -1.509909,16.50091 -1.936805,12.48779 -6.765792,25.70784 -1.165924,37.93797 2.257808,4.93123 5.891245,9.43965 10.251858,12.67115 2.387274,1.76912 5.063108,3.037 7.615805,4.53634 2.432546,1.42866 4.616447,3.28889 7.192703,4.46792 4.338472,1.98717 9.229925,2.90529 13.821263,4.11676 2.127484,0.56273 4.153149,1.66561 6.346515,1.95051 3.23712,0.42027 6.90907,0.13535 10.15439,-0.0874 4.2035,-0.28772 8.35693,-0.34695 12.55197,-0.89838 17.427485,-2.29179 34.354315,-9.52821 49.502705,-18.17497 13.85936,-7.91084 26.81468,-18.45705 32.34036,-33.96789 3.58649,-10.06724 3.93624,-20.75208 3.21275,-31.30941 -0.46823,-6.82982 -0.49504,-13.62326 -2.25231,-20.3088 -1.74881,-6.65001 -5.03066,-12.313776 -8.94151,-17.911246 -3.48071,-4.981157 -7.259,-9.734967 -11.94834,-13.639899 -6.80769,-5.667808 -15.67869,-8.745378 -23.97567,-11.511061 -5.89521,-1.964864 -12.15286,-3.307686 -18.33436,-3.925739 -2.20294,-0.22024 -4.70768,-0.795313 -6.91062,-0.479914 M 50.825773,132.20508 c 1.240673,-0.0979 4.201257,-0.73929 4.204488,1.26929 0.0049,2.94775 -4.385292,1.2569 -5.344594,3.10895 -1.4422,2.78413 -2.050625,6.32295 -3.043922,9.302 -0.394466,1.1834 -0.799237,3.03941 -1.785774,3.87645 -1.028132,0.87241 -3.544724,0.0892 -3.60663,-1.33785 -0.15662,-3.61454 1.265913,-7.84033 2.242706,-11.28267 -0.578387,0.0577 -1.115575,0.33269 -1.692395,0.36739 -1.329534,0.0798 -1.942311,-1.60129 -1.248438,-2.59784 1.05141,-1.5099 3.93624,-0.85382 4.892162,-2.32141 0.356829,-0.54792 0.37798,-1.44728 0.534666,-2.07672 0.456108,-1.83385 1.121213,-4.75323 2.778213,-5.91126 1.529083,-1.06875 4.830668,-1.5432 4.864234,1.25716 0.02292,1.92892 -1.707761,4.81982 -2.794716,6.34651 m 38.220052,4.79513 c 0.95592,-0.12876 1.8749,-0.43748 2.82067,-0.61885 0.59444,-0.11408 1.22572,-0.26119 1.83343,-0.20238 1.23474,0.11952 2.8713,1.1937 1.78477,2.50813 -1.20231,1.45462 -3.22247,2.40434 -4.74647,3.49029 -0.4286,0.30549 -1.49298,0.82153 -1.50258,1.43473 -0.008,0.49785 0.86693,0.69249 1.22051,0.83465 1.02616,0.41265 2.41069,1.03194 2.83575,2.14371 0.65314,1.7089 -0.92799,2.6115 -2.41264,2.35117 -2.19591,-0.38504 -3.4274,-2.54721 -5.07721,-3.76151 -0.0989,1.13334 -0.52649,3.47831 -1.32994,4.31647 -0.81165,0.84676 -2.82519,0.80177 -3.45265,-0.23271 -1.02672,-1.69325 0.91616,-3.59113 0.75002,-5.35306 -0.11672,-1.23941 -1.13715,-1.97405 -0.64212,-3.38213 0.33749,-0.95973 1.53233,-0.84323 1.8182,-1.83823 1.01361,-3.52766 1.88321,-7.09129 3.04449,-10.57538 0.37006,-1.11007 0.55482,-3.11486 1.51963,-3.85684 1.54376,-1.18721 3.95571,0.0476 4.65227,1.6003 0.28953,0.64552 0.0284,1.21233 0.20336,1.83343 0.14722,0.52268 0.59347,0.82943 0.61548,1.41034 0.0366,0.96467 -0.6197,1.87928 -1.07467,2.67964 -0.97455,1.71426 -2.10112,3.39467 -2.8603,5.21823 m 77.850415,-12.83404 c 0.17911,0.92546 1.08313,1.58225 1.10006,2.53861 0.0338,1.90226 -1.61201,4.40024 -2.22833,6.20547 -1.57958,4.6328 -2.58514,9.52102 -4.24369,14.10332 -0.93365,2.5805 -4.27332,3.81975 -5.88533,1.23011 -0.32437,-0.52098 -0.0747,-1.25365 0.0635,-1.79423 l 1.09159,-4.231 c 1.23968,-4.89104 2.90389,-9.97741 5.38889,-14.38541 1.14379,-2.02975 2.00549,-4.16965 4.71334,-3.66687 m 8.60304,0 c 0.1791,0.92546 1.08313,1.58225 1.10006,2.53861 0.0338,1.90226 -1.61201,4.40024 -2.22833,6.20547 -1.57958,4.6328 -2.58515,9.52102 -4.2437,14.10332 -0.93365,2.5805 -4.27331,3.81975 -5.88532,1.23011 -0.32437,-0.52098 -0.0747,-1.25365 0.0635,-1.79423 l 1.09159,-4.231 c 1.23968,-4.89104 2.90388,-9.97741 5.38889,-14.38541 1.14378,-2.02975 2.00549,-4.16965 4.71334,-3.66687 m -113.813933,2.59164 c 3.45715,-0.1825 2.559903,3.83469 -0.423103,3.95302 -3.580269,0.14195 -2.624907,-3.79211 0.423103,-3.95302 m 59.657113,6.8576 c 1.18749,0.61773 0.8744,2.04245 0.17065,2.94859 -0.66992,0.86256 -1.6769,0.91629 -2.56823,1.41005 -0.80247,0.44509 -1.3525,1.19723 -1.78971,1.98786 -0.91672,1.65926 -1.33277,3.52895 -1.75303,5.35927 -0.23976,1.04336 -0.31733,2.14639 -1.12545,2.93575 -1.30034,1.26803 -4.8036,2.41336 -5.25575,-0.25611 -0.31014,-1.83161 0.70826,-3.94429 1.27395,-5.64135 0.60856,-1.82595 1.17256,-3.64966 1.69847,-5.50029 0.37091,-1.3061 0.74323,-2.49869 2.01536,-3.19398 0.90402,-0.49391 2.25512,-0.59319 2.39756,0.65538 0.8039,-0.61335 5.20695,-3.13601 4.93618,-0.70517 m 8.17993,10.01337 h -0.14112 c -0.55285,2.0227 -2.27769,4.48754 -4.37204,5.10752 -1.51047,0.44708 -3.94893,0.5087 -4.0251,-1.58169 -0.10155,-2.74802 1.21853,-5.66813 1.81792,-8.32097 0.24258,-1.07538 0.22285,-2.72433 0.78839,-3.6608 0.6008,-0.99724 2.36936,-1.18693 3.19721,-0.3736 0.9252,0.90953 1.27072,2.64946 1.32431,3.89338 1.41881,-1.54051 2.56541,-2.34568 4.65412,-2.69092 0.55567,-0.092 1.57816,-0.35724 1.97024,0.21351 0.58529,0.85002 -0.17911,3.24364 -0.41887,4.1698 1.19173,-1.05902 2.25652,-2.97115 2.67117,-4.51306 0.23412,-0.86976 -0.1904,-1.71808 0.41041,-2.51252 1.17199,-1.54614 4.1647,-0.73322 5.06169,0.67922 0.50067,0.79007 0.33284,1.81228 0.14805,2.67949 -0.57683,2.71136 -1.66279,5.42373 -2.89684,7.89787 -0.50207,1.00726 -0.97735,2.16077 -1.87432,2.88711 -3.55969,2.88313 -8.27868,0.57626 -8.31535,-3.87434 m -29.05287,0.84621 c 1.6295,1.457 2.9548,-0.26106 4.79514,-0.10931 0.76186,0.0628 1.07678,0.53747 1.60213,1.00064 0.29943,0.26414 0.62732,0.42183 0.79403,0.80881 0.71926,1.67027 -1.80988,2.40548 -2.96029,2.68627 -2.74705,0.67048 -7.279015,1.1222 -8.995955,-1.70679 -1.04548,-1.72258 -0.69698,-4.27796 -10e-4,-6.06443 1.60919,-4.13312 6.444935,-9.67065 11.535965,-7.40017 2.80064,1.24913 2.06627,5.98392 0.50913,7.96416 -1.59847,2.03271 -4.80303,2.76976 -7.27874,2.82082 m 46.54102,0 c 1.62894,1.457 2.95465,-0.26106 4.79514,-0.10931 0.76158,0.0628 1.07749,0.53747 1.60214,1.00064 0.29899,0.26414 0.62759,0.42183 0.79402,0.80881 0.71927,1.67027 -1.80946,2.40548 -2.96028,2.68627 -2.74734,0.67048 -7.27875,1.1222 -8.99653,-1.70679 -0.98865,-1.62963 -0.69529,-3.92326 -0.12414,-5.64133 1.43714,-4.31491 6.43957,-10.15102 11.65922,-7.82327 2.80093,1.24913 2.06614,5.98392 0.50914,7.96416 -1.59791,2.03271 -4.80359,2.76976 -7.27874,2.82082 M 58.582537,133.66181 c 1.027142,-0.1801 2.97524,-0.1739 3.323594,1.08398 0.376546,1.36027 -0.832242,3.63303 -1.254636,4.93406 -0.612646,1.88645 -1.150691,3.83582 -1.532479,5.78237 -0.211403,1.07792 -0.254977,2.45073 -0.955214,3.35307 -0.406039,0.52322 -2.443822,1.42372 -3.107245,1.53612 -1.665045,0.28193 -2.990606,-1.15732 -2.75805,-2.77369 0.521262,-3.623 1.730479,-7.41159 3.291446,-10.71854 0.657636,-1.39327 1.309058,-2.90219 2.992584,-3.19737 m 11.4237,2.49221 c 2.399541,-1.63923 7.240228,-4.07446 10.007298,-1.77844 2.93533,2.43579 0.25218,8.48852 -1.1662,11.08664 -0.51238,0.93815 -1.12827,2.00591 -2.07206,2.55551 -0.86905,0.50631 -4.023121,1.47226 -4.183483,-0.3011 -0.140298,-1.55122 1.233765,-4.17402 1.779427,-5.63922 0.172479,-0.4633 1.110925,-2.94238 -0.275585,-2.45327 -0.925603,0.32649 -1.693945,1.65558 -2.170777,2.45327 -1.185526,1.98321 -2.067408,4.38135 -3.71567,6.00718 -0.468226,0.46202 -0.658478,0.98695 -1.306255,1.25857 -1.246723,0.52282 -4.658322,0.80743 -5.156453,-0.92489 -0.301534,-1.04815 0.190251,-2.36781 0.450734,-3.37916 0.744799,-2.89302 1.812564,-7.29185 3.792117,-9.58195 1.049844,-1.21458 3.909714,-1.26112 4.016907,0.69686 m 30.886303,5.50029 c 1.60101,-0.0384 2.7837,-1.39242 2.82067,-2.96169 -1.73866,0.0409 -2.387,1.46617 -2.82067,2.96169 m 46.54101,0 c 1.60073,-0.0384 2.784,-1.39242 2.82066,-2.96169 -1.73893,0.0409 -2.38768,1.46617 -2.82066,2.96169 z"
       id="path75" />
  </g>
</svg>
