<?xml version="1.0" encoding="UTF-8"?><svg xmlns="http://www.w3.org/2000/svg" xmlns:xlink="http://www.w3.org/1999/xlink" contentScriptType="text/ecmascript" width="375pt" zoomAndPan="magnify" contentStyleType="text/css" viewBox="0 0 375 374.999991" height="374.999991pt" preserveAspectRatio="xMidYMid meet" version="1.2"><defs><g/></defs><g xml:id="surface1" id="surface1"><rect x="0" width="375" y="0" height="374.999991" style="fill:rgb(100%,100%,100%);fill-opacity:1;stroke:none;"/><rect x="0" width="375" y="0" height="374.999991" style="fill:rgb(100%,100%,100%);fill-opacity:1;stroke:none;"/><rect x="0" width="375" y="0" height="374.999991" style="fill:rgb(0%,0%,0%);fill-opacity:1;stroke:none;"/><path style=" stroke:none;fill-rule:nonzero;fill:rgb(100%,100%,100%);fill-opacity:1;" d="M 114.253906 75.699219 L 260.453125 75.699219 L 260.453125 101.199219 L 114.253906 101.199219 Z M 114.253906 75.699219 "/><g style="fill:rgb(100%,100%,100%);fill-opacity:1;"><g transform="translate(138.070308, 202.222141)"><path style="stroke:none;" d="M 4.0625 -125.40625 L 94.8125 -125.40625 L 94.8125 -101 L 62.796875 -101 L 62.796875 0 L 36.078125 0 L 36.078125 -101 L 4.0625 -101 Z M 4.0625 -125.40625 "/></g></g><g style="fill:rgb(100%,100%,100%);fill-opacity:1;"><g transform="translate(90.39591, 286.355728)"><path style="stroke:none;" d="M 163.25 -125.40625 L 191.203125 -125.40625 L 155.828125 0 L 122.578125 0 L 96.75 -84.375 L 70.921875 0 L 38.03125 0 L 2.65625 -125.40625 L 30.59375 -125.40625 L 55.359375 -30.59375 L 83.84375 -125.40625 L 109.65625 -125.40625 L 138.3125 -29.890625 Z M 163.25 -125.40625 "/></g></g></g></svg>